<?xml version="1.0" encoding="UTF-8"?>
<svg width="194px" height="245px" viewBox="0 0 194 245" version="1.1" xmlns="http://www.w3.org/2000/svg" xmlns:xlink="http://www.w3.org/1999/xlink">
    <!-- Generator: Sketch 52.2 (67145) - http://www.bohemiancoding.com/sketch -->
    <title>Group 10</title>
    <desc>Created with Sketch.</desc>
    <defs>
        <path d="M36.748088,12.6126296 L158.354118,21.6038451 C168.543457,22.3572169 176.526724,30.6694742 176.868223,40.8809179 L182.674174,214.489079 C183.043367,225.528602 174.393356,234.777194 163.353832,235.146387 C162.075631,235.189134 160.796276,235.109179 159.533343,234.907622 L29.239322,214.11338 C19.3998437,212.54305 12.2170511,203.969559 12.3944997,194.00714 L15.2765402,32.2020061 C15.4732527,21.1580629 24.5856046,12.3646449 35.6295479,12.5613574 C36.0028,12.5680057 36.3757928,12.5851032 36.748088,12.6126296 Z" id="path-1"></path>
        <filter x="-8.9%" y="-6.9%" width="117.8%" height="114.1%" filterUnits="objectBoundingBox" id="filter-2">
            <feOffset dx="0" dy="0" in="SourceAlpha" result="shadowOffsetOuter1"></feOffset>
            <feGaussianBlur stdDeviation="5" in="shadowOffsetOuter1" result="shadowBlurOuter1"></feGaussianBlur>
            <feColorMatrix values="0 0 0 0 0   0 0 0 0 0   0 0 0 0 0  0 0 0 0.3 0" type="matrix" in="shadowBlurOuter1"></feColorMatrix>
        </filter>
    </defs>
    <g id="Page-1" stroke="none" stroke-width="1" fill="none" fill-rule="evenodd">
        <g id="メイン（WEB）" transform="translate(-1062.000000, -228.000000)">
            <g id="Group-13" transform="translate(121.000000, 228.000000)">
                <g id="Group-10" transform="translate(942.000000, 0.000000)">
                    <g id="Group-8-Copy-3">
                        <g id="Rectangle">
                            <use fill="black" fill-opacity="1" filter="url(#filter-2)" xlink:href="#path-1"></use>
                            <use fill="#FFFFFF" fill-rule="evenodd" xlink:href="#path-1"></use>
                        </g>
                        <path d="M24.1313156,2.6719617 C23.8055574,2.64787603 23.4791886,2.63291578 23.152593,2.62709852 C13.4891427,2.45497509 5.51583475,10.1492158 5.34371132,19.8126661 L2.46167082,181.6178 C2.3064033,190.334916 8.59134681,197.836722 17.2008903,199.21076 L147.494911,220.005002 C148.599978,220.181364 149.719413,220.251325 150.837839,220.213921 C160.497422,219.890877 168.066183,211.798359 167.743139,202.138777 L161.937188,28.5306159 C161.638375,19.5956027 154.653017,12.3223775 145.737345,11.6631772 L24.1313156,2.6719617 Z" id="Rectangle" stroke="#000000" stroke-width="5"></path>
                        <text id="バンチ情報" font-family="RoundedMplus1c-Bold, Rounded Mplus 1c Bold" font-size="16" font-weight="bold" fill="#000000">
                            <tspan x="51" y="170.126984">バンチ情報</tspan>
                        </text>
                    </g>
                    <g id="Group-14" transform="translate(51.000000, 53.000000)">
                        <g id="Orion_people" transform="translate(4.000000, 3.000000)" fill="#E3535D">
                            <circle id="Oval" cx="37.5" cy="23.75" r="6.25"></circle>
                            <path d="M48,35 L27,35 C25.8954305,35 25,35.8954305 25,37 L25,50.5 C25,51.6045695 25.8954305,52.5 27,52.5 L30,52.5 L30,68 C30,69.1045695 30.8954305,70 32,70 L43,70 C44.1045695,70 45,69.1045695 45,68 L45,52.5 L48,52.5 C49.1045695,52.5 50,51.6045695 50,50.5 L50,37 C50,35.8954305 49.1045695,35 48,35 Z" id="Path"></path>
                            <circle id="Oval" cx="10" cy="5" r="5"></circle>
                            <path d="M18,15 L2,15 C0.8954305,15 0,15.8954305 0,17 L0,28 C0,29.1045695 0.8954305,30 2,30 L5,30 L5,43 C5,44.1045695 5.8954305,45 7,45 L13,45 C14.1045695,45 15,44.1045695 15,43 L15,30 L18,30 C19.1045695,30 20,29.1045695 20,28 L20,17 C20,15.8954305 19.1045695,15 18,15 Z" id="Path"></path>
                            <circle id="Oval" cx="65" cy="5" r="5"></circle>
                            <path d="M73,15 L57,15 C55.8954305,15 55,15.8954305 55,17 L55,28 C55,29.1045695 55.8954305,30 57,30 L60,30 L60,43 C60,44.1045695 60.8954305,45 62,45 L68,45 C69.1045695,45 70,44.1045695 70,43 L70,30 L73,30 C74.1045695,30 75,29.1045695 75,28 L75,17 C75,15.8954305 74.1045695,15 73,15 Z" id="Path"></path>
                        </g>
                        <g id="Orion_people" stroke="#000000" stroke-linecap="round" stroke-linejoin="round" stroke-width="3">
                            <circle id="Oval" cx="37.5" cy="23.75" r="6.25"></circle>
                            <path d="M48,35 L27,35 C25.8954305,35 25,35.8954305 25,37 L25,50.5 C25,51.6045695 25.8954305,52.5 27,52.5 L30,52.5 L30,68 C30,69.1045695 30.8954305,70 32,70 L43,70 C44.1045695,70 45,69.1045695 45,68 L45,52.5 L48,52.5 C49.1045695,52.5 50,51.6045695 50,50.5 L50,37 C50,35.8954305 49.1045695,35 48,35 Z" id="Path"></path>
                            <circle id="Oval" cx="10" cy="5" r="5"></circle>
                            <path d="M18,15 L2,15 C0.8954305,15 0,15.8954305 0,17 L0,28 C0,29.1045695 0.8954305,30 2,30 L5,30 L5,43 C5,44.1045695 5.8954305,45 7,45 L13,45 C14.1045695,45 15,44.1045695 15,43 L15,30 L18,30 C19.1045695,30 20,29.1045695 20,28 L20,17 C20,15.8954305 19.1045695,15 18,15 Z" id="Path"></path>
                            <circle id="Oval" cx="65" cy="5" r="5"></circle>
                            <path d="M73,15 L57,15 C55.8954305,15 55,15.8954305 55,17 L55,28 C55,29.1045695 55.8954305,30 57,30 L60,30 L60,43 C60,44.1045695 60.8954305,45 62,45 L68,45 C69.1045695,45 70,44.1045695 70,43 L70,30 L73,30 C74.1045695,30 75,29.1045695 75,28 L75,17 C75,15.8954305 74.1045695,15 73,15 Z" id="Path"></path>
                        </g>
                    </g>
                </g>
            </g>
        </g>
    </g>
</svg>