<?xml version="1.0" encoding="UTF-8"?>
<svg width="200px" height="245px" viewBox="0 0 200 245" version="1.1" xmlns="http://www.w3.org/2000/svg" xmlns:xlink="http://www.w3.org/1999/xlink">
    <!-- Generator: Sketch 52.2 (67145) - http://www.bohemiancoding.com/sketch -->
    <title>Group 12</title>
    <desc>Created with Sketch.</desc>
    <defs>
        <path d="M31.6449594,15.9239893 L169.167869,12.3115973 C180.209755,12.0215538 189.3961,20.7376445 189.686143,31.7795308 C189.707845,32.6057076 189.678315,33.4324353 189.597725,34.2549583 L174.12048,192.218561 C173.269963,200.899098 166.892122,208.027409 158.35925,209.834391 L45.387043,233.758195 C34.5809913,236.046562 23.9658676,229.141614 21.6775006,218.335562 C21.4593973,217.305642 21.3229537,216.260109 21.2694418,215.208709 L12.1959833,36.9336942 C11.6345299,25.9022778 20.122112,16.5044 31.1535284,15.9429467 C31.3172549,15.9346137 31.4810776,15.9282941 31.6449594,15.9239893 Z" id="path-1"></path>
        <filter x="-8.6%" y="-6.9%" width="117.4%" height="114.1%" filterUnits="objectBoundingBox" id="filter-2">
            <feOffset dx="0" dy="0" in="SourceAlpha" result="shadowOffsetOuter1"></feOffset>
            <feGaussianBlur stdDeviation="5" in="shadowOffsetOuter1" result="shadowBlurOuter1"></feGaussianBlur>
            <feColorMatrix values="0 0 0 0 0   0 0 0 0 0   0 0 0 0 0  0 0 0 0.3 0" type="matrix" in="shadowBlurOuter1"></feColorMatrix>
        </filter>
    </defs>
    <g id="Page-1" stroke="none" stroke-width="1" fill="none" fill-rule="evenodd">
        <g id="メイン（WEB）" transform="translate(-747.000000, -227.000000)">
            <g id="Group-13" transform="translate(121.000000, 228.000000)">
                <g id="Group-12" transform="translate(627.000000, 0.000000)">
                    <g id="Rectangle">
                        <use fill="black" fill-opacity="1" filter="url(#filter-2)" xlink:href="#path-1"></use>
                        <use fill="#FFFFFF" fill-rule="evenodd" xlink:href="#path-1"></use>
                    </g>
                    <path d="M19.2923051,5.97631874 C19.1489084,5.98008542 19.0055636,5.98561508 18.8623029,5.99290645 C9.20981355,6.48417811 1.78317924,14.7073212 2.2744509,24.3598105 L11.3479095,202.634825 C11.3947324,203.5548 11.5141205,204.469642 11.7049609,205.370822 C13.707282,214.826117 22.9955152,220.867947 32.4508105,218.865626 L145.423017,194.941822 C152.889281,193.360712 158.469891,187.12344 159.214094,179.52797 L174.691338,21.5643677 C174.761855,20.84466 174.787693,20.1212733 174.768704,19.3983686 C174.514916,9.73671808 166.476865,2.11013868 156.815215,2.36392671 L19.2923051,5.97631874 Z" id="Rectangle" stroke="#000000" stroke-width="5"></path>
                    <g id="Group-11" transform="translate(58.366013, 57.255319)">
                        <path d="M50.7669908,9.44912451 L50.7669908,5.74240894 C55.4119941,4.64857569 60.1458725,3.97640338 64.9112248,3.73404255 L64.9112248,8.34147133 C68.0936774,8.10519293 71.27613,8.22333213 74.3407141,8.22333213 L74.3407141,60.2045799 C57.8391078,60.2045799 38.9801292,62.5673639 38.9801292,72.0184998 L38.496732,17.8045862 C42.8477173,12.7892415 46.6084378,10.0492287 49.7788935,9.58454785 C50.0901954,9.53892158 50.4195612,9.49378047 50.7669908,9.44912451 Z" id="Combined-Shape" fill="#67BAB7"></path>
                        <path d="M39.0860751,20.2904075 C39.0860751,10.8392715 20.2270965,8.71276596 3.7254902,8.71276596 L3.7254902,60.6940137 C20.2270965,60.6940137 39.0860751,63.0567977 39.0860751,72.5079336 L39.0860751,20.2904075 Z" id="Path" fill="#67BAB7"></path>
                        <path d="M60.7023374,5.1263974 C63.8847901,4.890119 67.0672427,5.0082582 70.1318267,5.0082582 L70.1318267,56.989506 C53.6302204,56.989506 34.7712418,59.3522899 34.7712418,68.8034259 M34.7712418,16.5858997 C34.7712418,11.7421926 39.6038551,8.78871259 46.5581035,7.01662459" id="Shape" stroke="#000000" stroke-width="3" stroke-linecap="round" stroke-linejoin="round"></path>
                        <path d="M60.7023374,5.1263974 C63.8847901,4.890119 67.0672427,5.0082582 70.1318267,5.0082582 L70.1318267,56.989506 C53.6302204,56.989506 34.7712418,59.3522899 34.7712418,68.8034259" id="Path"></path>
                        <path d="M34.7712418,15.7926794 C34.7712418,10.9489722 39.6038551,7.99549225 46.5581035,6.22340426" id="Path"></path>
                        <path d="M35.3605849,16.5563649 C35.3605849,7.10522899 16.5016063,4.9787234 -3.01980663e-14,4.9787234 L-3.01980663e-14,56.9599712 C16.5016063,56.9599712 35.3605849,59.3227551 35.3605849,68.7738911 L35.3605849,16.5563649 Z" id="Path" stroke="#000000" stroke-width="3" stroke-linecap="round" stroke-linejoin="round"></path>
                        <path d="M25.1944167,18.8980527 C19.8187633,17.34891 14.2804062,16.4369483 8.69281046,16.1808511 M25.1944167,27.7584926 C19.8187633,26.20935 14.2804062,25.2973883 8.69281046,25.041291 M25.1944167,37.2096286 C19.8187633,35.6604859 14.2804062,34.7485242 8.69281046,34.492427 M25.1944167,46.0700685 C19.8187633,44.5209259 14.2804062,43.6089642 8.69281046,43.3528669 M44.0533954,37.2096286 C49.4290488,35.6604859 54.9674059,34.7485242 60.5550017,34.492427 M44.0533954,46.0700685 C49.4290488,44.5209259 54.9674059,43.6089642 60.5550017,43.3528669" id="Shape" stroke="#000000" stroke-width="3" stroke-linecap="round" stroke-linejoin="round"></path>
                        <path d="M47.1895425,25.9906239 L54.2616595,21.2650559 L61.3337764,25.9906239 L61.3337764,7.10542736e-15 C56.5684242,0.242360829 51.8345457,0.914533137 47.1895425,2.00836639 L47.1895425,25.9906239 Z" id="Path" stroke="#000000" stroke-width="3" stroke-linecap="round" stroke-linejoin="round"></path>
                    </g>
                    <text id="記録" font-family="RoundedMplus1c-Bold, Rounded Mplus 1c Bold" font-size="16" font-weight="bold" fill="#000000">
                        <tspan x="75.751634" y="170.297872">記録</tspan>
                    </text>
                </g>
            </g>
        </g>
    </g>
</svg>