<?xml version="1.0" encoding="UTF-8"?>
<svg width="205px" height="27px" viewBox="0 0 205 27" version="1.1" xmlns="http://www.w3.org/2000/svg" xmlns:xlink="http://www.w3.org/1999/xlink">
    <!-- Generator: Sketch 52.2 (67145) - http://www.bohemiancoding.com/sketch -->
    <title>Group 3</title>
    <desc>Created with Sketch.</desc>
    <g id="Page-1" stroke="none" stroke-width="1" fill="none" fill-rule="evenodd">
        <g id="iPhone-8-Copy-14" transform="translate(-137.000000, -606.000000)">
            <g id="Group-4" transform="translate(137.000000, 606.000000)">
                <g id="Group-3">
                    <g id="Group-2" transform="translate(5.000000, 2.000000)">
                        <polygon id="Rectangle" fill="#047073" points="3.55271368e-15 12.5 200 0 200 25 3.55271368e-15 25"></polygon>
                        <polygon id="Rectangle-Copy-4" fill="#408956" points="20 11.2711065 200 0 200 25 20 25"></polygon>
                        <polygon id="Rectangle-Copy-5" fill="#879741" points="40 10.0076152 200 0 200 25 40 25"></polygon>
                        <polygon id="Rectangle-Copy-6" fill="#B19B38" points="60 8.74668822 200 0 200 25 60 25"></polygon>
                        <polygon id="Rectangle-Copy-7" fill="#D39B2D" points="80 7.49937439 200 0 200 25 80 25"></polygon>
                        <polygon id="Rectangle-Copy-8" fill="#F5A623" points="100 6.24271047 200 0 200 25 100 25"></polygon>
                        <polygon id="Rectangle-Copy-9" fill="#EE8936" points="120 4.99192719 200 0 200 25 120 25"></polygon>
                        <polygon id="Rectangle-Copy-10" fill="#EB7A41" points="140 3.74136341 200 0 200 25 140 25"></polygon>
                        <polygon id="Rectangle-Copy-11" fill="#E8684F" points="160 2.49434929 200 0 200 25 160 25"></polygon>
                        <polygon id="Rectangle-Copy-12" fill="#E3535D" points="180 1.25574307 200 0 200 25 180 25"></polygon>
                    </g>
                    <path d="M1.5,13.9091768 L1.5,23.5 L198.5,23.5 L198.5,1.59667683 L1.5,13.9091768 Z" id="Rectangle" stroke="#000000" stroke-width="3"></path>
                </g>
            </g>
        </g>
    </g>
</svg>