<?xml version="1.0" encoding="UTF-8"?>
<svg width="830px" height="52px" viewBox="0 0 830 52" version="1.1" xmlns="http://www.w3.org/2000/svg" xmlns:xlink="http://www.w3.org/1999/xlink">
    <!-- Generator: Sketch 52.2 (67145) - http://www.bohemiancoding.com/sketch -->
    <title>Group 3</title>
    <desc>Created with Sketch.</desc>
    <g id="Page-1" stroke="none" stroke-width="1" fill="none" fill-rule="evenodd">
        <g id="iPhone-8-Copy-14" transform="translate(-477.000000, -102.000000)">
            <g id="Group-4" transform="translate(477.000000, 102.000000)">
                <g id="Group-3">
                    <g id="Group-2" transform="translate(7.000000, 4.000000)">
                        <polygon id="Rectangle" fill="#047073" points="2.80220291e-13 24 823 0 823 48 2.80220291e-13 48"></polygon>
                        <polygon id="Rectangle-Copy-4" fill="#408956" points="82.3 21.6405246 823 0 823 48 82.3 48"></polygon>
                        <polygon id="Rectangle-Copy-5" fill="#879741" points="164.6 19.2146212 823 0 823 48 164.6 48"></polygon>
                        <polygon id="Rectangle-Copy-6" fill="#B19B38" points="246.9 16.7936414 823 0 823 48 246.9 48"></polygon>
                        <polygon id="Rectangle-Copy-7" fill="#D39B2D" points="329.2 14.3987988 823 0 823 48 329.2 48"></polygon>
                        <polygon id="Rectangle-Copy-8" fill="#F5A623" points="411.5 11.9860041 823 0 823 48 411.5 48"></polygon>
                        <polygon id="Rectangle-Copy-9" fill="#EE8936" points="493.8 9.5845002 823 0 823 48 493.8 48"></polygon>
                        <polygon id="Rectangle-Copy-10" fill="#EB7A41" points="576.1 7.18341775 823 0 823 48 576.1 48"></polygon>
                        <polygon id="Rectangle-Copy-11" fill="#E8684F" points="658.4 4.78915065 823 0 823 48 658.4 48"></polygon>
                        <polygon id="Rectangle-Copy-12" fill="#E3535D" points="740.7 2.41102669 823 0 823 48 740.7 48"></polygon>
                    </g>
                    <path d="M1.5,25.4568953 L1.5,46.5 L821.5,46.5 L821.5,1.54438007 L1.5,25.4568953 Z" id="Rectangle" stroke="#000000" stroke-width="3"></path>
                </g>
            </g>
        </g>
    </g>
</svg>