<?xml version="1.0" encoding="UTF-8"?>
<svg width="126px" height="40px" viewBox="0 0 126 40" version="1.1" xmlns="http://www.w3.org/2000/svg" xmlns:xlink="http://www.w3.org/1999/xlink">
    <!-- Generator: Sketch 52.2 (67145) - http://www.bohemiancoding.com/sketch -->
    <title>logo</title>
    <desc>Created with Sketch.</desc>
    <g id="Page-1" stroke="none" stroke-width="1" fill="none" fill-rule="evenodd">
        <g id="メイン（WEB）" transform="translate(-609.000000, -24.000000)">
            <g id="logo" transform="translate(609.000000, 24.000000)">
                <path d="M10.8394366,28.3380282 C9.17308255,28.5244764 7.48642057,28.3001039 5.92676056,27.684507 C5.55015875,27.5350241 5.29348365,27.1818216 5.26760563,26.7774648 C5.16619718,25.9492958 5.72957746,24.856338 6.45070423,24.7661972 C6.59084415,24.7510258 6.73252533,24.772375 6.86197183,24.828169 C7.87548939,25.2460418 8.97815508,25.4010739 10.0676056,25.2788732 C12.1577465,25.0253521 13.6788732,23.6732394 13.5042254,22.2253521 C13.4928579,22.0793262 13.4625571,21.9353974 13.4140845,21.7971831 C12.7098592,19.9098592 7.58873239,18.4169014 4.11830986,16.4112676 C1.88319363,15.1452386 0.377330013,12.8979303 0.0563380282,10.3492958 C-0.315486617,7.2418077 1.2935594,4.23300416 4.08450704,2.81690141 C5.88430148,1.97703722 7.81446951,1.45114741 9.7915493,1.26197183 C10.0450704,1.22816901 16.2873239,0.473239437 16.5521127,2.6028169 C16.6929577,3.75774648 15.7802817,5.58873239 14.8619718,5.69577465 C14.734744,5.70791418 14.6065543,5.68654922 14.4901408,5.63380282 C12.8925917,5.02799845 11.1682099,4.83424768 9.47605634,5.07042254 C5.87042254,5.50422535 4.09014085,7.44225352 4.36056338,9.67887324 C4.57941409,11.0221781 5.3028456,12.2312558 6.38309859,13.0591549 C9.43098592,15.5830986 15.6,16.6253521 16.9859155,20.484507 C17.1351398,20.8995838 17.2353499,21.3306761 17.284507,21.7690141 C17.7126761,25.2338028 14.6478873,27.8704225 10.8394366,28.3380282 Z" id="Path" fill="#000000"></path>
                <path d="M23.3690141,35.1605634 C23.3690141,36.7267606 23.3690141,38.0338028 23.3352113,38.9070423 C23.2957746,39.4704225 22.4957746,39.7408451 21.7352113,39.7408451 C21.115493,39.7408451 20.5352113,39.5605634 20.4619718,39.1267606 C19.8985915,36.3098592 18.828169,26.0788732 18.828169,18.6253521 C18.7923988,16.6321279 18.912956,14.639167 19.1887324,12.6647887 C19.2619718,12.1577465 20.0957746,11.8985915 20.8788732,11.8985915 C21.7915493,11.8985915 22.6591549,12.1915493 22.7323944,12.8112676 C24.0833442,12.0815201 25.5970008,11.7055286 27.1323944,11.7183099 C31.6056338,11.7183099 35.3126761,14.8450704 35.3126761,20.0056338 C35.3126761,25.1661972 31.4760563,29.0929577 27.2225352,29.0929577 C26.5690141,29.0929577 24.4056338,28.9859155 24.4056338,27.5661972 C24.4056338,26.6929577 25.0591549,25.6056338 25.6056338,25.6056338 C25.6695209,25.6194054 25.7305245,25.6441882 25.7859155,25.6788732 C26.1625676,25.9284093 26.6075909,26.0544336 27.0591549,26.0394366 C29.4535211,26.0394366 31.5661972,23.4591549 31.5661972,20.2253521 C31.5661972,16.6253521 29.0535211,15.0647887 26.9126761,15.0647887 C25.6617339,15.0083765 24.4782593,15.6335271 23.8197183,16.6985915 C23.6939503,17.0303089 23.379997,17.2529708 23.0253521,17.2619718 C23.2225352,22.5352113 23.3690141,30.2197183 23.3690141,35.1605634 Z" id="Path" fill="#FFFFFF"></path>
                <path d="M52.3943662,24.3492958 L52.5014085,24.3492958 C53.0647887,24.3492958 53.3352113,25.0760563 53.3352113,25.8422535 C53.3352113,27.6225352 52.6084507,27.7295775 52.028169,27.7295775 C48.7211268,27.7295775 47.8873239,24.315493 47.8873239,20.4056338 C47.9029419,18.7107709 48.0120278,17.0180593 48.2140845,15.3352113 C48.1005158,15.2509263 48.011136,15.1382299 47.9549296,15.0084507 C47.3005066,13.9412231 46.1182672,13.3134281 44.8676056,13.3690141 C42.2535211,13.3690141 40.2535211,15.4422535 40.2535211,18.4957746 C40.2535211,21.656338 42.3605634,24.3830986 44.7211268,24.3830986 C45.1726908,24.3980956 45.6177141,24.2720713 45.9943662,24.0225352 C46.0497572,23.9878501 46.1107608,23.9630674 46.1746479,23.9492958 C46.7380282,23.9492958 47.3746479,25.0366197 47.3746479,25.9098592 C47.3746479,27.3295775 45.1943662,27.4366197 44.5577465,27.4366197 C40.2704225,27.4366197 36.4507042,23.4929577 36.4507042,18.3492958 C36.4507042,14.2084507 39.0309859,10.028169 44.6647887,10.028169 C46.0744065,10.0114844 47.468685,10.3219669 48.7380282,10.9352113 C48.8450704,10.5014085 49.4985915,10.315493 50.2253521,10.315493 C51.3521127,10.315493 52.6647887,10.7549296 52.6647887,11.4422535 C52.6253521,14.4225352 51.5380282,19.515493 51.5380282,22.3492958 C51.5380282,23.5830986 51.7183099,24.3830986 52.3380282,24.3830986 L52.3943662,24.3492958 Z" id="Path" fill="#000000"></path>
                <path d="M55.2788732,16.7380282 C55.2512152,15.3372793 55.3606566,13.9371842 55.6056338,12.5577465 C55.6788732,12.0450704 56.5521127,11.7915493 57.4253521,11.7915493 C58.2985915,11.7915493 59.2450704,12.084507 59.3126761,12.6985915 C59.5323944,15.0985915 59.6056338,18.1915493 59.6056338,21.2394366 C59.6056338,23.6056338 59.571831,25.9323944 59.4591549,27.8929577 C59.4253521,28.456338 58.5521127,28.8 57.7690141,28.8 C57.2056338,28.8 56.715493,28.6197183 56.6084507,28.2366197 C55.8105268,24.4531355 55.365426,20.603768 55.2788732,16.7380282 Z M61.7521127,16.0450704 C61.2788732,16.0450704 60.7323944,14.6253521 60.7323944,13.6450704 C60.7323944,13.284507 60.8056338,12.9915493 60.9859155,12.884507 C62.2597884,12.0612076 63.757851,11.6537188 65.2732394,11.7183099 C65.7859155,11.7183099 66.5859155,11.7183099 66.5859155,13.0647887 C66.5859155,14.4112676 65.8197183,16.0450704 64.9859155,16.0450704 C64.8976229,16.0364589 64.8116772,16.0116301 64.7323944,15.971831 C64.3958185,15.8236173 64.0292679,15.7560949 63.6619718,15.7746479 C63.0236441,15.8168571 62.3902387,15.9148841 61.7690141,16.0676056 L61.7521127,16.0450704 Z" id="Shape" fill="#000000" fill-rule="nonzero"></path>
                <path d="M68.2028169,6.16338028 C68.3572782,4.28495917 68.6701274,2.4229413 69.1380282,0.597183099 C69.2619718,0.0957746479 70.1521127,-0.0676056338 71.0197183,0.0338028169 C71.8873239,0.135211268 72.8,0.507042254 72.8112676,1.16056338 C72.7267606,4.8056338 72.0732394,13.7239437 71.4366197,20.315493 C73.5098592,17.8985915 76.1070423,14.9802817 79.1549296,12.0056338 C79.3054325,11.8635866 79.5151617,11.8027652 79.7183099,11.8422535 C80.6591549,11.943662 82.1408451,13.1549296 82.0507042,14.056338 C82.0320601,14.1550202 81.9978291,14.2501062 81.9492958,14.3380282 C78.7943662,19.4591549 71.5042254,24.2647887 71.0084507,24.4788732 C70.9014085,25.5267606 70.8112676,26.3943662 70.7098592,27.0422535 C70.6084507,27.6901408 69.7126761,27.8535211 68.9183099,27.7690141 C68.3549296,27.7183099 67.8873239,27.4816901 67.7915493,27.0760563 C67.5323944,24.1464789 67.4422535,13.6112676 68.2028169,6.16338028 Z M73.8028169,25.0422535 C73.8929577,24.1746479 74.9690141,22.9295775 75.8704225,23.0253521 C76.5971831,23.0985915 79.8704225,26.1014085 80.3774648,26.6647887 C80.5074212,26.8219448 80.566559,27.0258685 80.5408451,27.228169 C80.3779352,28.0167304 79.7379495,28.6184071 78.9408451,28.7323944 C77.7070423,28.5859155 73.6619718,26.343662 73.8028169,25.0422535 Z" id="Shape" fill="#FFFFFF" fill-rule="nonzero"></path>
                <path d="M78.6253521,35.8591549 C78.6873239,35.171831 79.0028169,34.5070423 79.4760563,34.5464789 C83.3239437,34.7549296 84.1126761,32.1633803 84.7887324,24.7774648 C85.0309859,22.1014085 85.2619718,18.8 85.6338028,14.7492958 C85.684507,14.1859155 86.5126761,13.9492958 87.3802817,14.0338028 C88.2478873,14.1183099 89.0704225,14.4788732 89.1098592,15.0309859 C89.4159372,18.199974 89.4423302,21.3897613 89.1887324,24.5633803 C88.4507042,32.6760563 85.4028169,37.9774648 79.9380282,37.4760563 C78.9971831,37.3859155 78.5014085,37.1830986 78.6253521,35.8591549 Z M87.571831,6.69859155 C87.2338028,6.83943662 86.6084507,6.36056338 86.4450704,6.16901408 C86.0536712,5.65783616 85.7281121,5.09946447 85.4760563,4.50704225 C85.3126761,4.11830986 85.1211268,3.62816901 86.1014085,3.22253521 C87.0816901,2.81690141 87.228169,3.25633803 87.3859155,3.62816901 C87.6401128,4.24717287 87.8289315,4.8910447 87.9492958,5.54929577 C87.9661972,5.8084507 87.8873239,6.55774648 87.571831,6.69859155 Z M86.8957746,7.44788732 C86.8957746,7.81408451 86.2478873,8.24788732 86.0112676,8.35492958 C85.4012806,8.53868339 84.7714037,8.64839169 84.1352113,8.68169014 C83.7183099,8.68169014 83.1887324,8.70985915 83.143662,7.63943662 C83.0985915,6.56901408 83.5661972,6.58028169 83.9661972,6.55774648 C84.6357922,6.5303285 85.3063854,6.57566438 85.9661972,6.69295775 C86.1971831,6.76056338 86.8788732,7.08169014 86.8957746,7.44788732 Z M87.6169014,8.14084507 C87.9211268,8.2084507 88.1014085,8.95211268 88.1239437,9.21126761 C88.1149773,9.84498848 88.0375321,10.4758834 87.8929577,11.0929577 C87.7971831,11.5042254 87.6619718,12.0112676 86.7661972,11.8028169 C85.8704225,11.5943662 86.0056338,11.1380282 86.1014085,10.7492958 C86.2629576,10.097711 86.4835895,9.46221571 86.7605634,8.85070423 C86.8676056,8.64788732 87.3239437,8.06760563 87.6169014,8.14084507 Z M88.6760563,7.92676056 C88.8507042,7.63380282 89.6338028,7.66760563 89.8873239,7.71830986 C90.4931806,7.90900451 91.0738826,8.17192822 91.6169014,8.50140845 C91.9774648,8.71549296 92.4169014,9.0028169 91.8985915,9.86478873 C91.3802817,10.7267606 90.9915493,10.428169 90.6422535,10.2422535 C90.0702054,9.88845115 89.5359545,9.47690803 89.0478873,9.01408451 C88.8957746,8.85070423 88.4957746,8.22535211 88.6760563,7.92676056 Z M88.6422535,6.9971831 C88.4,6.71549296 88.6422535,5.96619718 88.7774648,5.72957746 C89.1417628,5.20908747 89.5673559,4.73431476 90.0450704,4.31549296 C90.3661972,4.03943662 90.771831,3.70704225 91.4816901,4.52957746 C92.1915493,5.35211268 91.8084507,5.65633803 91.4816901,5.89295775 C90.9728735,6.32854831 90.4173738,6.70643925 89.8253521,7.01971831 C89.6225352,7.10985915 88.8901408,7.27887324 88.6422535,6.9971831 Z" id="Shape" fill="#000000" fill-rule="nonzero"></path>
                <path d="M91.5492958,22.1126761 C91.5492958,17.171831 94.9295775,13.9380282 100.23662,13.9380282 C104.123944,13.9380282 104.180282,14.9183099 104.180282,15.628169 C104.180282,16.5690141 103.526761,17.6619718 102.726761,17.6619718 C102.659155,17.6619718 102.585915,17.6225352 102.512676,17.6225352 C101.736076,17.4447672 100.943055,17.3484718 100.146479,17.3352113 C97.0929577,17.3352113 95.3859155,19.0253521 95.3859155,22.4056338 C95.3859155,24.9183099 96.6253521,28.0394366 100.073239,28.0394366 C103.385915,28.0394366 104.692958,24.8450704 104.692958,22.9183099 C104.732023,21.7143327 104.256716,20.5506518 103.385915,19.7183099 C103.20841,19.5599033 103.102707,19.3363013 103.092958,19.0985915 C103.223502,18.1539523 103.967637,17.4121217 104.912676,17.284507 C105.746479,17.284507 108.073239,19.3577465 108.073239,22.8788732 C108.073239,27.0985915 104.766197,31.2788732 99.8591549,31.2788732 C95.256338,31.2394366 91.5492958,27.3859155 91.5492958,22.1126761 Z" id="Path" fill="#000000"></path>
                <path d="M112.940845,25.1774648 C112.617892,25.1350972 112.334946,24.9401791 112.180282,24.6535211 C110.067606,20.5352113 109.847887,12.2929577 109.960563,11.5774648 C110.073239,10.8619718 111.053521,10.4957746 111.842254,10.6197183 C112.357761,10.6325331 112.809221,10.9688711 112.969014,11.4591549 C113.825352,14.9014085 115.464789,22.9633803 115.352113,23.6788732 C115.194366,24.6478873 113.876056,25.3521127 112.940845,25.1774648 Z M111.160563,38.6197183 C110.264789,38.4788732 109.31831,37.7070423 109.414085,37.0985915 C109.416572,37.0455853 109.438657,36.9953919 109.476056,36.9577465 C115.171831,26.6704225 118.873239,16.0676056 122.169014,12.7943662 C122.448275,12.5325127 122.833667,12.4158535 123.211268,12.4788732 C124.180282,12.6309859 125.132394,13.6056338 125.047887,14.1690141 C124.96338,14.7323944 116.856338,31.6338028 112.292958,38.2140845 C112.025271,38.5563162 111.584665,38.7141455 111.160563,38.6197183 Z" id="Shape" fill="#FFFFFF" fill-rule="nonzero"></path>
            </g>
        </g>
    </g>
</svg>